<svg width="248" height="318" viewBox="0 0 248 318" fill="none" xmlns="http://www.w3.org/2000/svg">
<path opacity="0.07" d="M247.07 181.542C247.07 256.675 191.758 317.578 123.533 317.578C55.3076 317.578 0 256.675 0 181.542C0 106.414 55.3076 45.5103 123.533 45.5103C128.056 45.5103 132.527 45.78 136.924 46.306C140.292 47.5243 143.893 48.1807 147.633 48.1807C147.747 48.1807 147.861 48.1807 147.976 48.1762C160.542 48.0458 171.488 40.4795 177.375 29.2852C177.375 29.2852 177.379 29.2807 177.375 29.2762C179.057 26.0842 180.322 22.5955 181.098 18.9045C181.098 18.9 181.098 18.8955 181.098 18.8955C187.038 7.59778 198.131 0 210.836 0C229.804 0 245.179 16.9354 245.179 37.8181C245.179 46.4004 242.587 54.3129 238.214 60.6564C235.307 62.9087 232.731 65.6421 230.58 68.7577C226.203 75.1056 223.611 83.0181 223.611 91.6005C223.611 96.5637 224.476 101.302 226.056 105.641C227.481 109.57 229.486 113.171 231.964 116.318C241.599 135.686 247.07 157.912 247.07 181.542Z" fill="#29ABE2" fill-opacity="0.45"/>
<path d="M134.128 243.685C138.73 243.685 142.46 239.955 142.46 235.353C142.46 230.751 138.73 227.021 134.128 227.021C129.526 227.021 125.795 230.751 125.795 235.353C125.795 239.955 129.526 243.685 134.128 243.685Z" fill="#29ABE2" fill-opacity="0.45"/>
<path d="M137.794 168.693L121.963 152.945L101.465 132.614L88.5497 119.699L73.3847 104.45C72.6078 103.674 71.6855 103.057 70.6704 102.637C69.6553 102.216 68.5674 102 67.4687 102C66.37 102 65.282 102.216 64.2669 102.637C63.2519 103.057 62.3295 103.674 61.5526 104.45C59.9836 106.02 59.1021 108.148 59.1021 110.367C59.1021 112.585 59.9836 114.714 61.5526 116.283L73.0514 127.698L85.2167 139.863L103.798 158.528L116.713 171.36L139.544 194.191L162.792 217.521L194.871 249.601C195.646 250.382 196.567 251.002 197.583 251.425C198.598 251.848 199.687 252.066 200.787 252.066C201.887 252.066 202.976 251.848 203.992 251.425C205.007 251.002 205.929 250.382 206.703 249.601C207.484 248.827 208.104 247.905 208.527 246.89C208.95 245.874 209.168 244.785 209.168 243.685C209.168 242.585 208.95 241.496 208.527 240.481C208.104 239.465 207.484 238.544 206.703 237.769L137.794 168.693ZM215.119 143.113C193.417 122.067 164.359 110.318 134.128 110.367C121.55 110.401 109.059 112.454 97.1321 116.449L110.631 129.948C126.977 125.863 144.095 126.015 160.367 130.389C176.638 134.763 191.525 143.215 203.62 154.945C205.165 156.434 207.224 157.269 209.37 157.278C210.492 157.274 211.602 157.043 212.633 156.599C213.664 156.155 214.595 155.507 215.369 154.695C216.838 153.109 217.633 151.014 217.586 148.853C217.54 146.692 216.655 144.634 215.119 143.113ZM65.9688 132.447C61.4479 135.699 57.1601 139.263 53.1369 143.113C51.7307 144.677 50.9677 146.714 51.001 148.817C51.0344 150.919 51.8615 152.932 53.3165 154.45C54.7715 155.968 56.7468 156.88 58.8462 157.003C60.9455 157.126 63.0136 156.45 64.6356 155.112C68.791 151.185 73.2487 147.591 77.9675 144.363L65.9688 132.447ZM175.79 186.525C176.562 187.312 177.482 187.938 178.498 188.368C179.513 188.797 180.604 189.02 181.706 189.025C183.334 189.018 184.925 188.535 186.282 187.635C187.639 186.734 188.702 185.456 189.34 183.958C189.978 182.46 190.164 180.808 189.873 179.206C189.583 177.603 188.829 176.121 187.705 174.943C180.756 167.742 172.435 162.004 163.233 158.069C154.032 154.134 144.136 152.08 134.128 152.029H132.795L152.376 171.61C161.267 174.625 169.3 179.741 175.79 186.525ZM96.0488 162.527C90.2263 165.919 84.8989 170.097 80.2173 174.943C78.6814 176.567 77.8536 178.735 77.9162 180.969C77.9787 183.204 78.9263 185.322 80.5506 186.858C82.1748 188.394 84.3427 189.222 86.5773 189.159C88.8118 189.097 90.93 188.149 92.4659 186.525C97.3202 181.699 102.954 177.727 109.131 174.776L96.0488 162.527ZM105.215 205.356C103.623 206.892 102.708 208.997 102.668 211.208C102.649 212.303 102.846 213.391 103.247 214.41C103.648 215.429 104.246 216.359 105.006 217.146C105.767 217.934 106.675 218.565 107.679 219.001C108.683 219.438 109.763 219.673 110.858 219.692C113.069 219.732 115.205 218.891 116.797 217.355C121.086 213.398 126.603 211.033 132.426 210.654C138.25 210.275 144.027 211.905 148.793 215.272L127.795 194.274C119.306 195.553 111.42 199.424 105.215 205.356Z" fill="#29ABE2" fill-opacity="0.45"/>
</svg>
