<svg width="806" height="551" viewBox="0 0 806 551" fill="none" xmlns="http://www.w3.org/2000/svg">
<g filter="url(#filter0_f_1_230)">
<ellipse cx="403" cy="408" rx="326" ry="66" fill="#1A334C" fill-opacity="0.25"/>
</g>
<circle cx="314" cy="222" r="222" fill="url(#paint0_radial_1_230)"/>
<g filter="url(#filter1_i_1_230)">
<circle cx="227" cy="177" r="63" fill="white"/>
</g>
<g filter="url(#filter2_i_1_230)">
<circle cx="390" cy="177" r="63" fill="white"/>
</g>
<circle cx="227" cy="192" r="45" fill="black"/>
<circle cx="390" cy="192" r="45" fill="black"/>
<circle r="18" transform="matrix(1 0 0 -1 238 184)" fill="white"/>
<circle r="18" transform="matrix(1 0 0 -1 401 184)" fill="white"/>
<g filter="url(#filter3_i_1_230)">
<path fill-rule="evenodd" clip-rule="evenodd" d="M317 366.977C317.3 366.979 317.6 366.979 317.901 366.979C317.903 366.979 317.905 366.977 317.905 366.975V366.975C317.905 366.972 317.907 366.97 317.91 366.97C374.306 366.387 407.542 338.685 422.187 316.178C426.404 309.697 422.845 301.523 415.647 298.699V298.699C408.449 295.875 400.196 299.45 395.409 305.522C383.907 320.111 359.495 338.716 317 338.977C274.506 338.716 250.094 320.111 238.592 305.522C233.805 299.45 225.552 295.875 218.354 298.699V298.699C211.156 301.523 207.597 309.697 211.814 316.178C226.458 338.685 259.695 366.387 316.091 366.97C316.093 366.97 316.095 366.972 316.095 366.975V366.975C316.095 366.977 316.097 366.979 316.1 366.979C316.401 366.979 316.701 366.979 317 366.977Z" fill="url(#paint1_linear_1_230)"/>
</g>
<defs>
<filter id="filter0_f_1_230" x="0" y="265" width="806" height="286" filterUnits="userSpaceOnUse" color-interpolation-filters="sRGB">
<feFlood flood-opacity="0" result="BackgroundImageFix"/>
<feBlend mode="normal" in="SourceGraphic" in2="BackgroundImageFix" result="shape"/>
<feGaussianBlur stdDeviation="38.5" result="effect1_foregroundBlur_1_230"/>
</filter>
<filter id="filter1_i_1_230" x="164" y="114" width="127" height="128" filterUnits="userSpaceOnUse" color-interpolation-filters="sRGB">
<feFlood flood-opacity="0" result="BackgroundImageFix"/>
<feBlend mode="normal" in="SourceGraphic" in2="BackgroundImageFix" result="shape"/>
<feColorMatrix in="SourceAlpha" type="matrix" values="0 0 0 0 0 0 0 0 0 0 0 0 0 0 0 0 0 0 127 0" result="hardAlpha"/>
<feOffset dx="1" dy="2"/>
<feGaussianBlur stdDeviation="6.5"/>
<feComposite in2="hardAlpha" operator="arithmetic" k2="-1" k3="1"/>
<feColorMatrix type="matrix" values="0 0 0 0 0.203922 0 0 0 0 0.337255 0 0 0 0 0.345098 0 0 0 0.25 0"/>
<feBlend mode="normal" in2="shape" result="effect1_innerShadow_1_230"/>
</filter>
<filter id="filter2_i_1_230" x="327" y="114" width="127" height="128" filterUnits="userSpaceOnUse" color-interpolation-filters="sRGB">
<feFlood flood-opacity="0" result="BackgroundImageFix"/>
<feBlend mode="normal" in="SourceGraphic" in2="BackgroundImageFix" result="shape"/>
<feColorMatrix in="SourceAlpha" type="matrix" values="0 0 0 0 0 0 0 0 0 0 0 0 0 0 0 0 0 0 127 0" result="hardAlpha"/>
<feOffset dx="1" dy="2"/>
<feGaussianBlur stdDeviation="6.5"/>
<feComposite in2="hardAlpha" operator="arithmetic" k2="-1" k3="1"/>
<feColorMatrix type="matrix" values="0 0 0 0 0.203922 0 0 0 0 0.337255 0 0 0 0 0.345098 0 0 0 0.25 0"/>
<feBlend mode="normal" in2="shape" result="effect1_innerShadow_1_230"/>
</filter>
<filter id="filter3_i_1_230" x="210.006" y="297.717" width="214.989" height="71.2622" filterUnits="userSpaceOnUse" color-interpolation-filters="sRGB">
<feFlood flood-opacity="0" result="BackgroundImageFix"/>
<feBlend mode="normal" in="SourceGraphic" in2="BackgroundImageFix" result="shape"/>
<feColorMatrix in="SourceAlpha" type="matrix" values="0 0 0 0 0 0 0 0 0 0 0 0 0 0 0 0 0 0 127 0" result="hardAlpha"/>
<feOffset dx="1" dy="2"/>
<feGaussianBlur stdDeviation="6.5"/>
<feComposite in2="hardAlpha" operator="arithmetic" k2="-1" k3="1"/>
<feColorMatrix type="matrix" values="0 0 0 0 0.203922 0 0 0 0 0.337255 0 0 0 0 0.345098 0 0 0 0.25 0"/>
<feBlend mode="normal" in2="shape" result="effect1_innerShadow_1_230"/>
</filter>
<radialGradient id="paint0_radial_1_230" cx="0" cy="0" r="1" gradientUnits="userSpaceOnUse" gradientTransform="translate(245.5 107) rotate(63.6835) scale(515.419)">
<stop stop-color="white"/>
<stop offset="0.158893" stop-color="#ECEDEF"/>
<stop offset="0.560219" stop-color="#D2D6DA"/>
<stop offset="1" stop-color="#F4F5F6"/>
</radialGradient>
<linearGradient id="paint1_linear_1_230" x1="317" y1="366.996" x2="317" y2="257.749" gradientUnits="userSpaceOnUse">
<stop stop-color="#858F99"/>
<stop offset="1" stop-color="#A6ADB5"/>
</linearGradient>
</defs>
</svg>
