<svg width="208" height="212" viewBox="0 0 208 212" fill="none" xmlns="http://www.w3.org/2000/svg">
<rect width="208" height="212" fill="white"/>
<path fill-rule="evenodd" clip-rule="evenodd" d="M79 149C114.899 149 144 119.899 144 84C144 48.1015 114.899 19 79 19C43.1015 19 14 48.1015 14 84C14 119.899 43.1015 149 79 149ZM79 159C97.9294 159 115.221 151.987 128.418 140.418L194.652 206.652L201.723 199.581L135.484 133.342C147.014 120.155 154 102.893 154 84C154 42.5786 120.421 9 79 9C37.5786 9 4 42.5786 4 84C4 125.421 37.5786 159 79 159ZM47 73C50.3137 73 53 70.3137 53 67C53 63.6863 50.3137 61 47 61C43.6863 61 41 63.6863 41 67C41 70.3137 43.6863 73 47 73ZM115 67C115 70.3137 112.314 73 109 73C105.686 73 103 70.3137 103 67C103 63.6863 105.686 61 109 61C112.314 61 115 63.6863 115 67ZM54.2273 118C55.0884 116.388 56.377 114.894 58.0113 113.568C58.0037 113.465 58 113.363 58 113.263C58 111.452 59.2232 109 62.9278 106.738C66.5458 104.529 71.8623 103 78 103C84.1377 103 89.4541 104.529 93.0722 106.738C96.7768 109 98 111.452 98 113.263C98 113.363 97.9963 113.465 97.9886 113.568C99.623 114.894 100.912 116.388 101.773 118C102.569 116.509 103 114.917 103 113.263C103 104.834 91.8071 98 78 98C64.1929 98 53 104.834 53 113.263C53 114.917 53.4307 116.509 54.2273 118Z" fill="#29ABE2" fill-opacity="0.45"/>
</svg>
